<?xml version="1.0" encoding="UTF-8"?>
<svg width="500" height="580" viewBox="0 0 500 580" xmlns="http://www.w3.org/2000/svg">
    <!-- Background -->
    <rect width="500" height="580" fill="#f8fafc" rx="20"/>
    
    <!-- Header -->
    <rect x="50" y="30" width="400" height="80" fill="#1e40af" rx="12"/>
    <text x="250" y="60" font-family="system-ui, -apple-system, sans-serif" font-size="24" font-weight="bold" fill="white" text-anchor="middle">🎤 Pitch Trainer</text>
    <text x="250" y="85" font-family="system-ui, -apple-system, sans-serif" font-size="16" fill="white" text-anchor="middle" opacity="0.9">Professionelles Training</text>
    
    <!-- QR Code -->
    <g transform="translate(50, 130)">
        <path fill="#ffffff" d="M0 0h33v33H0z"/><path stroke="#1e40af" d="M2 2.5h7m1 0h2m1 0h1m1 0h3m3 0h2m1 0h7M2 3.5h1m5 0h1m1 0h1m1 0h1m2 0h1m2 0h3m1 0h1m1 0h1m5 0h1M2 4.5h1m1 0h3m1 0h1m2 0h3m4 0h1m3 0h1m1 0h1m1 0h3m1 0h1M2 5.5h1m1 0h3m1 0h1m1 0h4m2 0h2m1 0h1m1 0h1m2 0h1m1 0h3m1 0h1M2 6.5h1m1 0h3m1 0h1m5 0h1m1 0h1m1 0h1m2 0h2m1 0h1m1 0h3m1 0h1M2 7.5h1m5 0h1m3 0h1m1 0h2m1 0h2m2 0h2m1 0h1m5 0h1M2 8.5h7m1 0h1m1 0h1m1 0h1m1 0h1m1 0h1m1 0h1m1 0h1m1 0h7M10 9.5h1m1 0h2m3 0h4m1 0h1M2 10.5h1m1 0h2m1 0h3m1 0h5m1 0h1m1 0h4m1 0h1m2 0h1m1 0h2M6 11.5h2m1 0h2m1 0h1m1 0h4m1 0h3m1 0h4m3 0h1M4 12.5h2m2 0h1m1 0h1m1 0h2m1 0h1m2 0h2m2 0h2m1 0h2m1 0h2M3 13.5h4m2 0h1m2 0h2m4 0h1m1 0h1m1 0h4m4 0h1M3 14.5h1m1 0h2m1 0h2m1 0h2m1 0h1m1 0h2m1 0h1m2 0h2m1 0h1m1 0h2M2 15.5h3m1 0h2m4 0h2m2 0h1m1 0h1m2 0h2m1 0h1m3 0h3M2 16.5h5m1 0h1m1 0h1m3 0h2m1 0h7m1 0h1m2 0h3M3 17.5h3m1 0h1m1 0h1m2 0h2m2 0h1m1 0h1m1 0h1m1 0h1m6 0h1M2 18.5h1m1 0h3m1 0h1m1 0h1m1 0h3m1 0h2m2 0h4m1 0h3m1 0h1M13 19.5h1m2 0h1m1 0h3m4 0h1m1 0h3M2 20.5h1m1 0h1m1 0h1m1 0h2m1 0h1m3 0h4m1 0h1m1 0h1m3 0h1m1 0h1M4 21.5h3m2 0h2m1 0h2m1 0h2m1 0h3m5 0h1m1 0h1M3 22.5h1m3 0h2m1 0h7m1 0h2m1 0h8M10 23.5h2m1 0h1m4 0h3m1 0h1m3 0h5M2 24.5h7m1 0h1m1 0h1m3 0h1m3 0h3m1 0h1m1 0h2m1 0h1M2 25.5h1m5 0h1m1 0h3m2 0h2m5 0h1m3 0h2m2 0h1M2 26.5h1m1 0h3m1 0h1m3 0h3m2 0h3m2 0h5m1 0h2M2 27.5h1m1 0h3m1 0h1m1 0h1m1 0h3m2 0h4m1 0h2m1 0h3m2 0h1M2 28.5h1m1 0h3m1 0h1m1 0h1m1 0h1m2 0h1m3 0h1m5 0h1m2 0h1m1 0h1M2 29.5h1m5 0h1m3 0h1m2 0h1m1 0h1m4 0h1m1 0h2m1 0h1m1 0h1M2 30.5h7m1 0h1m1 0h2m1 0h1m1 0h1m2 0h5m1 0h1m2 0h1"/>

    </g>
    
    <!-- Footer -->
    <text x="250" y="550" font-family="system-ui, -apple-system, sans-serif" font-size="14" fill="#374151" text-anchor="middle">Scannen für sofortigen Zugriff</text>
    <text x="250" y="570" font-family="system-ui, -apple-system, sans-serif" font-size="12" fill="#9ca3af" text-anchor="middle">andreas@siglochconsulting.de</text>
</svg>